<?xml version="1.0" encoding="utf-8"?>
<!-- Generator: Adobe Illustrator 27.5.0, SVG Export Plug-In . SVG Version: 6.00 Build 0)  -->
<svg version="1.1" id="Layer_1" xmlns="http://www.w3.org/2000/svg" xmlns:xlink="http://www.w3.org/1999/xlink" x="0px" y="0px"
	 viewBox="0 0 2122 2122" style="enable-background:new 0 0 2122 2122;" xml:space="preserve">
<g>
	<rect style="fill:#FFFFFF;" width="2121.32" height="2121.32"/>
	<g>
		<path style="opacity:0.4;" d="M1061.571,1672.37h-0.931c-17.477,0-35.144-0.745-52.567-2.227l9.911-116.419
			c13.859,1.133,28,1.783,41.916,1.783h1.338v62.642l1.243,54.221H1061.571z"/>
		<path style="opacity:0.5;" d="M1319.659,1614.995l-49.543-105.876c12.951-6.031,25.826-12.749,38.222-19.928l58.599,101.126
			C1351.591,1599.187,1335.706,1607.478,1319.659,1614.995z"/>
		<path style="opacity:0.3;" d="M755.441,1590.91c-15.345-8.851-30.504-18.481-45.017-28.65l66.985-95.764
			c11.747,8.181,23.975,15.975,36.387,23.158L755.441,1590.91z"/>
		<path style="opacity:0.6;" d="M1561.861,1411.443l-95.672-67.118c8.219-11.761,16.033-23.99,23.196-36.348l101.183,58.488
			C1581.718,1381.81,1572.031,1396.95,1561.861,1411.443z"/>
		<path style="opacity:0.2;" d="M531.346,1367.521c-8.961-15.421-17.275-31.32-24.769-47.316l105.858-49.542
			c6.03,12.875,12.749,25.697,19.965,38.169L531.346,1367.521z"/>
		<path style="opacity:0.7;" d="M1670.059,1113.941l-116.418-10.147c1.204-14.178,1.835-28.668,1.835-43.124v-2.337h116.9v2.337
			C1672.377,1078.447,1671.58,1096.407,1670.059,1113.941z"/>
		<path style="opacity:0.1;" d="M565.825,1061.837l-116.882-0.164c0-18.37,0.704-35.85,2.17-52.94l116.471,9.854
			c-1.148,13.582-1.745,27.46-1.76,41.304V1061.837z"/>
		<path style="opacity:0.8;" d="M1508.438,849.788c-6.121-12.955-12.875-25.811-20.076-38.169l100.944-58.895
			c8.923,15.288,17.276,31.172,24.826,47.168L1508.438,849.788z"/>
		<path style="opacity:0.05;" d="M631.415,814.29l-101.351-58.283c8.851-15.345,18.503-30.523,28.635-45.055l95.836,66.914
			C646.315,789.612,638.559,801.856,631.415,814.29z"/>
		<path d="M1343.018,654.25c-11.781-8.22-24.047-15.961-36.444-23.086l58.154-101.384c15.364,8.812,30.542,18.423,45.089,28.535
			L1343.018,654.25z"/>
		<path style="opacity:0.03;" d="M812.071,632.707l-58.819-101.016c15.326-8.946,31.211-17.256,47.224-24.754l49.763,105.728
			C837.29,618.753,824.467,625.468,812.071,632.707z"/>
		<path style="opacity:0.02;" d="M1102.262,567.576c-13.768-1.17-27.741-1.744-41.623-1.744h-1.724V448.95h1.724
			c17.074,0,34.349,0.726,51.306,2.17L1102.262,567.576z"/>
	</g>
	<g style="opacity:0.5;">
		<path d="M754.933,1055.516c-6.56-3.611-11.706-8.621-15.44-15.026c-3.733-6.402-5.596-13.57-5.596-21.508
			c0-7.934,1.863-15.101,5.596-21.507c3.734-6.401,8.898-11.412,15.501-15.026c6.596-3.611,13.984-5.42,22.155-5.42
			c6.129,0,11.783,1.022,16.969,3.065c5.186,2.042,9.588,5.028,13.199,8.955l-5.539,5.538c-6.441-6.52-14.573-9.782-24.391-9.782
			c-6.525,0-12.458,1.496-17.796,4.481c-5.345,2.985-9.531,7.071-12.552,12.257c-3.029,5.182-4.539,10.998-4.539,17.439
			c0,6.445,1.511,12.257,4.539,17.444c3.021,5.186,7.207,9.272,12.552,12.257c5.337,2.985,11.271,4.478,17.796,4.478
			c9.897,0,18.029-3.302,24.391-9.902l5.539,5.543c-3.611,3.927-8.035,6.934-13.258,9.013c-5.225,2.082-10.901,3.125-17.029,3.125
			C768.859,1060.939,761.494,1059.13,754.933,1055.516z"/>
		<path d="M861.588,1055.458c-6.639-3.654-11.826-8.664-15.559-15.026c-3.733-6.363-5.596-13.512-5.596-21.45
			c0-7.934,1.864-15.083,5.596-21.45c3.733-6.362,8.919-11.372,15.559-15.022c6.639-3.654,14.041-5.481,22.212-5.481
			c8.172,0,15.537,1.81,22.097,5.42c6.561,3.614,11.728,8.625,15.501,15.026c3.77,6.406,5.654,13.574,5.654,21.507
			c0,7.938-1.884,15.106-5.654,21.508c-3.773,6.405-8.94,11.415-15.501,15.026c-6.56,3.614-13.926,5.423-22.097,5.423
			C875.629,1060.939,868.228,1059.113,861.588,1055.458z M901.481,1048.74c5.262-2.946,9.387-7.031,12.372-12.257
			c2.985-5.222,4.481-11.056,4.481-17.501c0-6.441-1.496-12.275-4.481-17.5c-2.985-5.222-7.11-9.312-12.372-12.257
			c-5.265-2.945-11.156-4.42-17.681-4.42c-6.52,0-12.43,1.475-17.734,4.42c-5.305,2.946-9.469,7.035-12.491,12.257
			c-3.028,5.225-4.539,11.059-4.539,17.5c0,6.445,1.511,12.279,4.539,17.501c3.021,5.226,7.186,9.312,12.491,12.257
			c5.305,2.945,11.214,4.42,17.734,4.42C890.325,1053.16,896.216,1051.686,901.481,1048.74z"/>
		<path d="M1055.866,977.734v82.497h-8.369v-65.996l-32.408,55.509h-4.126l-32.408-55.157v65.644h-8.369v-82.497h7.189
			l35.829,61.166l35.469-61.166H1055.866z"/>
		<path d="M1106.303,977.734h8.722v82.497h-8.722V977.734z"/>
		<path d="M1234.404,977.734v82.497h-7.185l-53.035-66.938v66.938h-8.722v-82.497h7.19l53.149,66.942v-66.942H1234.404z"/>
		<path d="M1342.945,1018.982h8.369v31.466c-3.852,3.381-8.409,5.974-13.674,7.78c-5.262,1.809-10.804,2.711-16.616,2.711
			c-8.25,0-15.673-1.809-22.273-5.423c-6.6-3.611-11.786-8.621-15.555-15.026c-3.773-6.402-5.658-13.57-5.658-21.508
			c0-7.934,1.885-15.101,5.658-21.507c3.769-6.401,8.955-11.412,15.555-15.026c6.6-3.611,14.066-5.42,22.392-5.42
			c6.284,0,12.059,1,17.325,3.004c5.265,2.003,9.703,4.97,13.318,8.898l-5.42,5.538c-6.524-6.441-14.81-9.664-24.866-9.664
			c-6.683,0-12.71,1.475-18.091,4.42c-5.384,2.946-9.606,7.035-12.67,12.257c-3.064,5.225-4.596,11.059-4.596,17.5
			c0,6.445,1.532,12.257,4.596,17.444c3.064,5.186,7.268,9.272,12.609,12.257c5.341,2.985,11.354,4.478,18.03,4.478
			c8.487,0,15.677-2.122,21.568-6.366V1018.982z"/>
	</g>
	<g>
		<path d="M845.325,1191.026c-5.618-1.96-9.962-4.553-13.026-7.776l3.42-6.718c2.985,2.985,6.952,5.402,11.901,7.247
			c4.949,1.849,10.056,2.77,15.321,2.77c7.387,0,12.926-1.356,16.616-4.064c3.693-2.712,5.538-6.225,5.538-10.548
			c0-3.302-1-5.931-3.003-7.895c-2.003-1.964-4.46-3.478-7.366-4.539c-2.909-1.061-6.952-2.219-12.138-3.478
			c-6.208-1.568-11.157-3.082-14.851-4.535c-3.693-1.453-6.854-3.672-9.484-6.661c-2.636-2.985-3.949-7.028-3.949-12.139
			c0-4.161,1.1-7.955,3.298-11.372c2.197-3.417,5.578-6.147,10.135-8.189c4.557-2.043,10.215-3.064,16.972-3.064
			c4.712,0,9.329,0.647,13.847,1.942c4.517,1.299,8.427,3.086,11.725,5.363l-2.942,6.955c-3.46-2.28-7.154-3.989-11.081-5.129
			c-3.931-1.136-7.779-1.708-11.549-1.708c-7.229,0-12.67,1.395-16.321,4.183c-3.654,2.791-5.481,6.387-5.481,10.786
			c0,3.298,1,5.948,3.007,7.956c2,2.004,4.514,3.536,7.538,4.596c3.025,1.058,7.093,2.219,12.2,3.474
			c6.049,1.492,10.94,2.967,14.674,4.42c3.729,1.453,6.891,3.654,9.487,6.6c2.59,2.946,3.885,6.934,3.885,11.962
			c0,4.165-1.115,7.956-3.356,11.373c-2.241,3.416-5.679,6.128-10.311,8.132c-4.64,2.003-10.333,3.007-17.091,3.007
			C856.812,1193.976,850.939,1192.994,845.325,1191.026z"/>
		<path d="M950.091,1188.494c-6.639-3.654-11.825-8.664-15.559-15.026c-3.733-6.363-5.596-13.512-5.596-21.45
			c0-7.934,1.863-15.084,5.596-21.45c3.734-6.363,8.92-11.373,15.559-15.023c6.639-3.654,14.041-5.481,22.213-5.481
			c8.171,0,15.536,1.809,22.097,5.42c6.56,3.614,11.728,8.625,15.501,15.026c3.769,6.406,5.653,13.573,5.653,21.508
			c0,7.937-1.884,15.105-5.653,21.507c-3.773,6.405-8.941,11.415-15.501,15.026c-6.561,3.615-13.926,5.424-22.097,5.424
			C964.133,1193.976,956.731,1192.148,950.091,1188.494z M989.985,1181.776c5.261-2.946,9.387-7.031,12.372-12.257
			c2.985-5.222,4.481-11.055,4.481-17.5c0-6.441-1.496-12.275-4.481-17.501c-2.985-5.222-7.11-9.312-12.372-12.257
			c-5.266-2.946-11.157-4.42-17.681-4.42c-6.521,0-12.43,1.475-17.735,4.42c-5.305,2.946-9.469,7.035-12.491,12.257
			c-3.028,5.226-4.539,11.06-4.539,17.501c0,6.445,1.511,12.279,4.539,17.5c3.021,5.226,7.186,9.312,12.491,12.257
			c5.305,2.945,11.214,4.42,17.735,4.42C978.828,1186.196,984.719,1184.721,989.985,1181.776z"/>
		<path d="M1072.54,1188.494c-6.643-3.654-11.829-8.664-15.559-15.026c-3.734-6.363-5.596-13.512-5.596-21.45
			c0-7.934,1.863-15.084,5.596-21.45c3.729-6.363,8.915-11.373,15.559-15.023c6.635-3.654,14.041-5.481,22.212-5.481
			s15.537,1.809,22.097,5.42c6.56,3.614,11.725,8.625,15.497,15.026c3.773,6.406,5.658,13.573,5.658,21.508
			c0,7.937-1.885,15.105-5.658,21.507c-3.773,6.405-8.938,11.415-15.497,15.026c-6.56,3.615-13.926,5.424-22.097,5.424
			S1079.175,1192.148,1072.54,1188.494z M1112.432,1181.776c5.258-2.946,9.387-7.031,12.372-12.257
			c2.985-5.222,4.478-11.055,4.478-17.5c0-6.441-1.493-12.275-4.478-17.501c-2.985-5.222-7.115-9.312-12.372-12.257
			c-5.266-2.946-11.161-4.42-17.681-4.42c-6.525,0-12.433,1.475-17.738,4.42c-5.301,2.946-9.466,7.035-12.491,12.257
			c-3.025,5.226-4.535,11.06-4.535,17.501c0,6.445,1.51,12.279,4.535,17.5c3.024,5.226,7.19,9.312,12.491,12.257
			c5.305,2.945,11.214,4.42,17.738,4.42C1101.272,1186.196,1107.166,1184.721,1112.432,1181.776z"/>
		<path d="M1250.079,1110.77v82.497h-7.186l-53.034-66.939v66.939h-8.722v-82.497h7.19l53.149,66.943v-66.943H1250.079z"/>
	</g>
</g>
</svg>
